<?xml version="1.0" encoding="utf-8"?>
<!-- Generator: Adobe Illustrator 24.2.0, SVG Export Plug-In . SVG Version: 6.00 Build 0)  -->
<svg version="1.1" id="Layer_1" xmlns="http://www.w3.org/2000/svg" xmlns:xlink="http://www.w3.org/1999/xlink" x="0px" y="0px"
	 viewBox="0 0 43 40" style="enable-background:new 0 0 43 40;" xml:space="preserve">
<style type="text/css">
	.st0{fill-rule:evenodd;clip-rule:evenodd;fill:#44BB90;}
	.st1{fill:#44BB90;}
</style>
<path class="st0" d="M29.5,37.6C26.7,39.1,23.4,40,20,40C9,40,0,31,0,20S9,0,20,0c3.1,0,5.9,0.7,8.5,1.9c-0.2,0.2-0.3,0.4-0.5,0.7
	c-0.7,1.1-1.2,2.5-1.6,3.9C24.5,5.5,22.3,5,20,5C11.7,5,5,11.7,5,20s6.7,15,15,15c4.3,0,8.2-1.8,10.9-4.7c-0.3,1.1-0.7,2.3-1.3,3.6
	c-0.4,0.9-0.5,1.5-0.5,2.5C29.1,36.9,29.3,37.2,29.5,37.6z M26,9.6c-0.2,3.7,1,7.3,4.1,8.6c1,0.9,1.6,2,1.6,3.4c0,0.3,0,0.6,0,0.9
	c-1.2,5.4-6,9.5-11.7,9.5c-6.6,0-12-5.4-12-12S13.4,8,20,8C22.2,8,24.2,8.6,26,9.6z"/>
<path class="st1" d="M38.8,17.9c5-2.3,4.8-9.7,2-14.3c-2.8-4.7-7-4.8-9.9,0c-2.8,4.6-3,12,2,14.3c0.9,0.9,1.6,2.6,1.6,3.9
	c0,4.2,0.3,7.5-1.9,12.3c-0.4,0.9-0.6,1.5-0.6,2.1c0,2.1,1.7,3.8,3.8,3.8c2.1,0,3.8-1.7,3.8-3.8c0-0.5-0.2-1.2-0.6-2.1
	c-2.2-4.9-1.9-8.4-1.9-12.3C37.1,20.4,37.8,18.7,38.8,17.9z"/>
</svg>
